<?xml version="1.0" encoding="utf-8"?>
<!-- Generator: Adobe Illustrator 19.0.0, SVG Export Plug-In . SVG Version: 6.00 Build 0)  -->
<svg version="1.1" id="Laag_1" xmlns="http://www.w3.org/2000/svg" xmlns:xlink="http://www.w3.org/1999/xlink" x="0px" y="0px"
	 viewBox="-248 350.9 99 141" style="enable-background:new -248 350.9 99 141;" xml:space="preserve">
<style type="text/css">
	.st0{fill:#D9AF5B;}
</style>
<path class="st0" d="M-204,393.9h2c6.2-10.6,11.7-20.6,19.7-30c3.4-4,8.6-7.4,7.3-13C-187.5,355.1-206.9,379.9-204,393.9
	 M-222.4,356.9c-3.5,2.6,0.2,8.4,4.1,5.9C-214.2,360.2-218.7,354.2-222.4,356.9 M-231,369.9c2.8,8.6,11.8,20.1,21,22
	C-211.5,384.3-222.9,370.2-231,369.9 M-180.6,374.9c-4,2.6,0.2,8.6,4,5.9C-173.2,378.3-176.7,372.4-180.6,374.9 M-247,386.9
	c0.9,5.5,5.2,5.3,10,6.5c9.3,2.3,17.7,7.3,27,9.5C-208.1,389.7-238.1,387-247,386.9 M-197,395.9v4c12.1,0,24-1,36-2.6
	c2-0.3,10.8,0.4,10.1-3.3c-0.7-3.4-8.7-2.2-11.1-2.2C-173.6,392.2-185.5,394.4-197,395.9 M-210,405.9c-0.6,13.3-2.5,26.7,4,39h2
	l-1-39H-210 M-236,417.9c5.6-0.7,17.2-5.4,19-11C-224.9,407-233.6,409.4-236,417.9 M-200,406.9c1.3,7.7,15.6,11.6,22,14.8
	c2.2,1.1,6.8,4.1,9.1,2.2c3.2-2.6-3.6-6.2-5.2-7.1C-182,411.8-190.4,407.1-200,406.9 M-191,446.4c-17.9,3.7-12,31.2,6,27.1
	C-168.5,469.7-174.1,443-191,446.4z"/>
<path class="st0" d="M-207.7,482.7c-4.3,1.6-1.1,8.6,3.3,6.5C-200.4,487.4-203.8,481.3-207.7,482.7z"/>
</svg>
