<?xml version="1.0" encoding="utf-8"?>
<!-- Generator: Adobe Illustrator 19.0.0, SVG Export Plug-In . SVG Version: 6.00 Build 0)  -->
<svg version="1.1" id="Laag_1" xmlns="http://www.w3.org/2000/svg" xmlns:xlink="http://www.w3.org/1999/xlink" x="0px" y="0px"
	 viewBox="-188 359.9 218 123" style="enable-background:new -188 359.9 218 123;" xml:space="preserve">
<style type="text/css">
	.st0{fill:#D9AF5B;}
</style>
<path class="st0" d="M22.2,360.9c-5.7,3.2,0.2,11.2,5.3,7.8C32.4,365.5,27,358.2,22.2,360.9z"/>
<path class="st0" d="M-173,394.4c-24.5,5.7-15.4,43.4,9,37.8C-139.3,426.5-148,388.6-173,394.4z"/>
<path class="st0" d="M-120.7,405.9c-5,3.2,0.4,11.1,5.4,7.9C-110.2,410.6-115.5,402.6-120.7,405.9 M-139,473.9c6.3-1,8.7-8.1,12-13
	c6.7-10,14.5-18.6,23-27c4.7-4.6,10.9-8.2,12-15C-112.5,421-138.5,453.8-139,473.9 M-85,480.9l-2-55c-4.9,1.6-5.1,6.3-5.7,11
	c-1.3,10.3-0.7,21.8,0.7,32C-91.3,473.7-91.4,481.9-85,480.9 M-22,425.9c-6.7,12.9-3.8,29.3-1.9,43c0.4,3,0.3,13.4,4.9,13.4
	c5.1,0,2.3-10.6,2.1-13.4c-1-13.8,1.1-29.8-3.1-43H-22 M-13.3,428c-2.4,1.8,1,4.8,2.4,5.8c3.1,2.5,15.2,12.2,19.3,9
	c2.4-1.9-1-4.9-2.4-6C2.8,434.2-9.1,424.8-13.3,428 M-82,428.9c1.4,8,7.6,16.1,16,17C-67.9,439.2-74.9,430-82,428.9 M-30,429.9
	c-6.5,1.5-10.3,6.8-14.1,12c-1.1,1.6-4.2,5.3-2.2,7.2c2.2,2.1,5.7-1.8,7-3.3C-35,441.2-30.7,436.4-30,429.9z"/>
</svg>
