<?xml version="1.0" encoding="utf-8"?>
<!-- Generator: Adobe Illustrator 19.0.0, SVG Export Plug-In . SVG Version: 6.00 Build 0)  -->
<svg version="1.1" id="Laag_1" xmlns="http://www.w3.org/2000/svg" xmlns:xlink="http://www.w3.org/1999/xlink" x="0px" y="0px"
	 viewBox="-260 344.9 75 153" style="enable-background:new -260 344.9 75 153;" xml:space="preserve">
<style type="text/css">
	.st0{fill:#D9AF5B;}
	.st1{display:none;fill:#FFFFFF;}
</style>
<path class="st0" d="M-242,345.9c-9.8,1.6-15.3,29.2-15.9,38c-0.2,2.2-1.4,13.9,2.7,13.1c3.3-0.7,5.2-15,6-18.1
	c1.2-4.4,2.8-8.7,4.1-13C-243,359.3-242,352.8-242,345.9 M-214,381.3c-9.8,1.5-20.2,4.7-28,10.9c-1.7,1.3-13.4,12.9-4.9,12.2
	c5-0.5,10.5-6.3,14.9-8.6c8-4.2,17.1-6.5,26-7.6c3.5-0.4,12.6,1.4,14.9-1.9c1.9-2.8-1.9-4.3-3.9-4.8
	C-200.8,380.2-208.1,380.4-214,381.3 M-205,413.9c-1.5-8.9-21.2-6.5-28-5.6c-2.4,0.3-8.5-0.1-9.5,2.7c-1.5,4,10.7,2.8,12.5,2.8h10
	H-205 M-195.9,423.9c-5.9,3.3-1.5,12.8,4.7,9.7C-184.4,430.4-189.4,420.3-195.9,423.9 M-224,458.4c-24.8,5.9-14.2,44,11,37.9
	C-188.4,490.4-199.5,452.6-224,458.4z"/>
<path class="st1" d="M-222,464.5c-16.7,5-9.3,30.7,7,25.7C-198.7,485.2-205.9,459.7-222,464.5z"/>
</svg>
